<?xml version="1.0" encoding="UTF-8" ?>
<!DOCTYPE svg PUBLIC "-//W3C//DTD SVG 1.1//EN" "http://www.w3.org/Graphics/SVG/1.1/DTD/svg11.dtd">
<svg preserveAspectRatio="none" viewBox="0 0 1000 1000" version="1.1" xmlns="http://www.w3.org/2000/svg">
<path fill="#ff9402" d=" M 0.00 0.00 L 1000.00 0.00 L 1000.00 95.94 C 900.01 96.17 800.02 95.92 700.03 96.03 C 466.68 96.01 233.34 96.03 0.00 96.00 L 0.00 0.00 Z" />
<path fill="#ff8f06" d=" M 0.00 96.00 C 233.34 96.03 466.68 96.01 700.03 96.03 C 800.02 95.92 900.01 96.17 1000.00 95.94 L 1000.00 194.92 C 904.00 195.15 807.99 194.92 711.99 195.01 C 474.66 195.01 237.33 195.02 0.00 195.01 L 0.00 96.00 Z" />
<path fill="#ff8a0b" d=" M 0.00 195.01 C 237.33 195.02 474.66 195.01 711.99 195.01 C 807.99 194.92 904.00 195.15 1000.00 194.92 L 1000.00 289.08 C 666.67 288.96 333.33 289.10 0.00 289.00 L 0.00 195.01 Z" />
<path fill="#ff8412" d=" M 0.00 289.00 C 333.33 289.10 666.67 288.96 1000.00 289.08 L 1000.00 409.90 C 945.51 409.89 891.01 410.09 836.52 409.87 C 835.17 397.92 824.22 387.35 811.97 387.65 C 769.84 387.73 727.70 387.66 685.56 387.69 C 685.52 396.09 685.55 404.49 685.54 412.89 C 679.42 413.03 673.30 413.21 667.19 412.79 C 666.74 407.48 668.13 401.75 665.55 396.83 C 663.64 392.10 659.50 387.66 654.05 387.70 C 611.71 387.65 569.35 387.73 527.00 387.66 C 520.35 387.16 514.20 393.27 514.61 399.91 C 514.63 409.23 514.65 418.56 514.64 427.89 C 508.51 427.89 502.38 428.02 496.26 427.76 C 495.70 421.41 497.34 414.75 494.73 408.71 C 492.42 397.66 482.67 387.74 470.98 387.67 C 436.32 387.70 401.66 387.68 367.01 387.68 C 354.19 388.00 342.93 400.05 343.70 412.92 C 320.29 413.00 296.89 412.87 273.49 412.95 C 274.21 399.79 262.21 387.35 249.02 387.65 C 223.63 387.73 198.24 387.65 172.85 387.69 C 172.83 395.14 172.83 402.60 172.84 410.05 C 115.23 409.89 57.61 409.94 0.00 410.02 L 0.00 289.00 Z" />
<path fill="#e0dddd" d=" M 172.84 410.05 C 172.83 402.60 172.83 395.14 172.85 387.69 C 198.24 387.65 223.63 387.73 249.02 387.65 C 262.21 387.35 274.21 399.79 273.49 412.95 C 273.37 438.06 273.46 463.17 273.45 488.28 C 290.20 488.34 306.96 488.19 323.71 488.34 C 323.63 518.92 323.79 549.51 323.63 580.09 C 321.74 584.79 317.47 589.10 312.06 588.85 C 300.78 588.91 289.50 588.82 278.22 588.85 L 277.13 588.90 C 277.47 583.44 278.35 578.05 278.73 572.60 C 288.04 571.28 297.44 571.51 306.81 571.51 C 306.65 570.54 306.48 569.58 306.32 568.63 C 298.24 568.11 290.13 568.15 282.05 568.42 C 268.73 569.48 255.51 571.46 242.21 572.70 C 242.62 573.35 243.45 574.66 243.86 575.32 C 254.13 575.74 264.28 573.77 274.46 572.77 C 274.69 572.98 275.14 573.39 275.37 573.59 C 274.92 577.69 274.29 581.76 274.08 585.88 C 273.89 586.87 273.73 587.88 273.59 588.89 C 257.00 588.74 240.40 589.03 223.82 588.74 C 224.79 578.90 218.09 568.91 208.36 566.69 C 204.42 565.44 200.23 565.47 196.23 566.38 C 195.88 565.45 195.53 564.54 195.18 563.63 C 190.58 563.38 185.99 564.29 181.88 566.38 C 178.70 567.78 175.67 569.53 172.87 571.59 C 172.81 552.71 172.87 533.83 172.84 514.94 C 172.83 479.98 172.86 445.01 172.84 410.05 Z" />
<path fill="#e0dddd" d=" M 343.70 412.92 C 342.93 400.05 354.19 388.00 367.01 387.68 C 401.66 387.68 436.32 387.70 470.98 387.67 C 482.67 387.74 492.42 397.66 494.73 408.71 C 494.57 427.16 494.69 445.61 494.67 464.06 C 494.92 475.74 485.28 486.34 473.87 488.03 C 477.76 489.16 481.58 490.71 484.80 493.21 C 490.34 497.85 494.64 504.54 494.64 511.96 C 494.69 527.63 494.61 543.30 494.67 558.98 C 494.67 563.65 495.01 568.53 493.18 572.95 C 489.58 582.15 480.16 589.31 470.07 588.88 C 433.82 588.81 397.56 588.91 361.30 588.83 C 362.14 584.40 363.42 580.04 363.68 575.51 C 362.62 575.34 361.58 575.16 360.53 575.00 C 359.77 579.61 359.03 584.23 358.28 588.86 C 353.43 588.86 348.59 588.86 343.74 588.84 C 343.74 579.89 343.75 570.94 343.74 561.99 C 343.74 541.65 343.74 521.32 343.74 500.98 C 343.70 471.63 343.82 442.27 343.70 412.92 Z" />
<path fill="#e0dddd" d=" M 514.61 399.91 C 514.20 393.27 520.35 387.16 527.00 387.66 C 569.35 387.73 611.71 387.65 654.05 387.70 C 659.50 387.66 663.64 392.10 665.55 396.83 C 665.79 428.68 665.41 460.54 665.74 492.38 C 665.51 499.43 665.67 506.48 665.58 513.54 C 657.22 513.53 648.86 513.53 640.51 513.54 C 640.49 538.64 640.50 563.73 640.51 588.82 C 606.90 588.89 573.30 588.86 539.69 588.84 C 539.67 563.74 539.71 538.64 539.68 513.53 C 531.33 513.53 522.98 513.55 514.63 513.52 C 514.66 506.71 514.65 499.90 514.65 493.10 C 514.63 471.36 514.66 449.63 514.64 427.89 C 514.65 418.56 514.63 409.23 514.61 399.91 Z" />
<path fill="#e0dddd" d=" M 685.54 412.89 C 685.55 404.49 685.52 396.09 685.56 387.69 C 727.70 387.66 769.84 387.73 811.97 387.65 C 824.22 387.35 835.17 397.92 836.52 409.87 C 836.57 428.57 836.52 447.28 836.54 465.98 C 836.53 473.40 836.55 480.81 836.52 488.23 C 833.35 488.28 830.20 488.37 827.04 488.42 C 832.12 489.95 836.46 494.42 836.51 499.93 C 836.62 509.62 836.49 519.31 836.54 529.00 C 836.53 548.94 836.53 568.89 836.54 588.83 C 794.04 588.90 751.54 588.84 709.04 588.86 C 696.50 589.01 685.34 577.45 685.52 565.00 C 685.57 546.02 685.54 527.04 685.55 508.06 C 685.54 501.47 685.54 494.89 685.53 488.30 C 692.03 488.24 698.53 488.39 705.03 488.15 C 697.41 486.05 690.47 480.92 687.40 473.49 C 685.04 468.65 685.52 463.17 685.54 457.95 C 685.55 442.93 685.55 427.91 685.54 412.89 Z" />
<path fill="#ff7c1a" d=" M 665.55 396.83 C 668.13 401.75 666.74 407.48 667.19 412.79 C 673.30 413.21 679.42 413.03 685.54 412.89 C 685.55 427.91 685.55 442.93 685.54 457.95 C 685.52 463.17 685.04 468.65 687.40 473.49 C 690.47 480.92 697.41 486.05 705.03 488.15 C 698.53 488.39 692.03 488.24 685.53 488.30 C 685.54 494.89 685.54 501.47 685.55 508.06 C 679.39 508.16 673.22 508.28 667.08 507.81 C 666.89 502.65 667.38 497.37 665.74 492.38 C 665.41 460.54 665.79 428.68 665.55 396.83 Z" />
<path fill="#ff7c1a" d=" M 494.73 408.71 C 497.34 414.75 495.70 421.41 496.26 427.76 C 502.38 428.02 508.51 427.89 514.64 427.89 C 514.66 449.63 514.63 471.36 514.65 493.10 C 504.70 493.20 494.75 493.11 484.80 493.21 C 481.58 490.71 477.76 489.16 473.87 488.03 C 485.28 486.34 494.92 475.74 494.67 464.06 C 494.69 445.61 494.57 427.16 494.73 408.71 Z" />
<path fill="#ff7c1a" d=" M 0.00 410.02 C 57.61 409.94 115.23 409.89 172.84 410.05 C 172.86 445.01 172.83 479.98 172.84 514.94 C 115.23 515.07 57.61 514.92 0.00 514.97 L 0.00 410.02 Z" />
<path fill="#ff7e19" d=" M 836.52 409.87 C 891.01 410.09 945.51 409.89 1000.00 409.90 L 1000.00 466.05 C 945.51 465.86 891.03 466.12 836.54 465.98 C 836.52 447.28 836.57 428.57 836.52 409.87 Z" />
<path fill="#ff7d1a" d=" M 273.49 412.95 C 296.89 412.87 320.29 413.00 343.70 412.92 C 343.82 442.27 343.70 471.63 343.74 500.98 C 337.57 500.96 331.40 501.14 325.23 500.83 C 325.23 496.68 325.21 492.53 324.75 488.41 L 323.71 488.34 C 306.96 488.19 290.20 488.34 273.45 488.28 C 273.46 463.17 273.37 438.06 273.49 412.95 Z" />
<path fill="#ff7a1d" d=" M 836.54 465.98 C 891.03 466.12 945.51 465.86 1000.00 466.05 L 1000.00 529.10 C 945.51 528.95 891.02 529.19 836.54 529.00 C 836.49 519.31 836.62 509.62 836.51 499.93 C 836.46 494.42 832.12 489.95 827.04 488.42 C 830.20 488.37 833.35 488.28 836.52 488.23 C 836.55 480.81 836.53 473.40 836.54 465.98 Z" />
<path fill="#ff771f" d=" M 323.71 488.34 L 324.75 488.41 C 325.21 492.53 325.23 496.68 325.23 500.83 C 331.40 501.14 337.57 500.96 343.74 500.98 C 343.74 521.32 343.74 541.65 343.74 561.99 C 337.56 561.95 331.38 561.85 325.21 562.17 C 324.61 568.12 326.41 574.52 323.63 580.09 C 323.79 549.51 323.63 518.92 323.71 488.34 Z" />
<path fill="#ff7323" d=" M 484.80 493.21 C 494.75 493.11 504.70 493.20 514.65 493.10 C 514.65 499.90 514.66 506.71 514.63 513.52 C 522.98 513.55 531.33 513.53 539.68 513.53 C 539.71 538.64 539.67 563.74 539.69 588.84 C 573.30 588.86 606.90 588.89 640.51 588.82 C 640.50 563.73 640.49 538.64 640.51 513.54 C 648.86 513.53 657.22 513.53 665.58 513.54 C 665.67 506.48 665.51 499.43 665.74 492.38 C 667.38 497.37 666.89 502.65 667.08 507.81 C 673.22 508.28 679.39 508.16 685.55 508.06 C 685.54 527.04 685.57 546.02 685.52 565.00 C 685.34 577.45 696.50 589.01 709.04 588.86 C 751.54 588.84 794.04 588.90 836.54 588.83 C 836.53 568.89 836.53 548.94 836.54 529.00 C 891.02 529.19 945.51 528.95 1000.00 529.10 L 1000.00 618.02 C 800.68 618.01 601.35 618.01 402.03 618.03 C 397.02 617.81 391.54 619.11 386.99 616.37 C 389.01 613.57 390.82 610.37 390.46 606.80 C 387.75 610.82 385.67 615.67 381.25 618.15 C 376.21 621.00 368.72 621.61 364.99 616.36 C 369.36 614.00 374.41 610.53 374.56 605.02 C 375.02 601.72 370.77 599.29 368.06 600.99 C 364.59 603.13 362.64 606.84 360.62 610.23 C 360.04 608.83 359.18 607.48 359.14 605.93 C 359.08 600.16 360.27 594.48 361.30 588.83 C 397.56 588.91 433.82 588.81 470.07 588.88 C 480.16 589.31 489.58 582.15 493.18 572.95 C 495.01 568.53 494.67 563.65 494.67 558.98 C 494.61 543.30 494.69 527.63 494.64 511.96 C 494.64 504.54 490.34 497.85 484.80 493.21 Z" />
<path fill="#ff7621" d=" M 0.00 514.97 C 57.61 514.92 115.23 515.07 172.84 514.94 C 172.87 533.83 172.81 552.71 172.87 571.59 C 164.60 577.78 157.60 586.31 155.27 596.57 C 154.60 598.97 153.94 601.38 153.31 603.80 C 143.21 604.35 133.08 603.92 122.98 603.99 C 81.98 603.99 40.99 604.03 0.00 603.98 L 0.00 514.97 Z" />
<path fill="#ff7324" d=" M 325.21 562.17 C 331.38 561.85 337.56 561.95 343.74 561.99 C 343.75 570.94 343.74 579.89 343.74 588.84 C 348.59 588.86 353.43 588.86 358.28 588.86 C 356.91 598.00 355.43 607.12 354.35 616.31 C 351.48 618.86 348.05 621.38 343.96 620.89 C 341.06 621.17 337.99 619.25 337.90 616.15 C 338.27 612.65 339.09 609.21 339.87 605.80 C 340.92 602.97 344.24 602.60 346.81 602.33 C 346.31 605.27 345.37 608.17 345.56 611.19 C 346.85 609.96 348.33 608.88 349.33 607.38 C 349.86 605.50 349.63 603.52 349.71 601.60 C 347.50 600.44 344.98 598.77 342.44 600.12 C 337.06 601.96 334.85 607.84 334.11 613.01 C 333.97 616.14 331.47 618.50 328.73 619.62 C 326.64 620.41 323.48 619.54 323.38 616.94 C 322.80 613.98 324.82 610.39 322.49 607.93 C 323.59 605.84 323.83 602.99 321.57 601.61 C 319.04 600.93 315.92 600.92 314.01 602.98 C 310.86 605.55 309.71 609.56 308.80 613.35 C 308.07 617.89 302.48 621.35 298.42 618.44 C 297.45 613.87 297.95 609.23 299.43 604.84 C 299.07 604.23 298.36 603.00 298.00 602.39 C 296.20 602.85 294.40 603.33 292.60 603.79 C 292.59 601.96 292.42 600.15 292.06 598.36 C 291.44 598.42 290.20 598.53 289.59 598.58 C 289.23 600.40 288.91 602.23 288.58 604.06 C 284.75 604.08 280.93 604.00 277.11 603.81 C 277.19 598.81 277.59 593.82 278.22 588.85 C 289.50 588.82 300.78 588.91 312.06 588.85 C 317.47 589.10 321.74 584.79 323.63 580.09 C 326.41 574.52 324.61 568.12 325.21 562.17 Z" />
<path fill="#313030" d=" M 181.88 566.38 C 185.99 564.29 190.58 563.38 195.18 563.63 C 195.53 564.54 195.88 565.45 196.23 566.38 C 200.23 565.47 204.42 565.44 208.36 566.69 C 203.83 567.00 199.30 567.09 194.76 567.07 C 195.25 567.46 196.21 568.24 196.69 568.63 C 193.49 569.42 190.21 570.07 187.19 571.44 C 184.48 572.81 182.01 574.60 179.22 575.83 C 181.25 570.00 188.28 568.47 193.56 566.92 C 192.96 566.48 192.36 566.05 191.76 565.65 L 191.01 565.70 C 187.95 565.48 184.87 565.66 181.88 566.38 Z" />
<path fill="#010101" d=" M 181.88 566.38 C 184.87 565.66 187.95 565.48 191.01 565.70 C 184.37 567.69 178.10 570.87 172.66 575.17 C 166.62 580.08 161.12 586.29 159.06 593.97 C 157.00 602.03 158.68 612.00 166.07 616.84 C 174.65 622.27 185.79 622.01 195.21 619.10 C 208.28 614.83 220.45 603.33 220.65 588.83 C 221.02 581.98 218.43 574.34 212.08 570.95 C 207.46 568.11 201.90 568.27 196.69 568.63 C 196.21 568.24 195.25 567.46 194.76 567.07 C 199.30 567.09 203.83 567.00 208.36 566.69 C 218.09 568.91 224.79 578.90 223.82 588.74 C 224.09 596.46 220.25 603.63 215.39 609.39 C 205.94 620.04 191.20 626.01 176.99 624.03 C 169.33 623.09 161.50 619.21 157.92 612.07 C 155.21 607.38 154.95 601.83 155.27 596.57 C 157.60 586.31 164.60 577.78 172.87 571.59 C 175.67 569.53 178.70 567.78 181.88 566.38 Z" />
<path fill="#e0dddd" d=" M 172.66 575.17 C 178.10 570.87 184.37 567.69 191.01 565.70 L 191.76 565.65 C 192.36 566.05 192.96 566.48 193.56 566.92 C 188.28 568.47 181.25 570.00 179.22 575.83 C 182.01 574.60 184.48 572.81 187.19 571.44 C 190.21 570.07 193.49 569.42 196.69 568.63 C 201.90 568.27 207.46 568.11 212.08 570.95 C 218.43 574.34 221.02 581.98 220.65 588.83 C 208.41 588.85 196.16 588.92 183.91 588.82 C 176.90 588.85 172.14 581.74 172.66 575.17 Z" />
<path fill="#010101" d=" M 242.21 572.70 C 255.51 571.46 268.73 569.48 282.05 568.42 C 290.13 568.15 298.24 568.11 306.32 568.63 C 306.48 569.58 306.65 570.54 306.81 571.51 C 297.44 571.51 288.04 571.28 278.73 572.60 C 278.35 578.05 277.47 583.44 277.13 588.90 C 276.00 601.24 274.69 613.71 276.53 626.07 C 275.14 625.56 273.80 624.95 272.52 624.24 C 271.92 612.46 272.29 600.62 273.59 588.89 C 273.73 587.88 273.89 586.87 274.08 585.88 C 274.29 581.76 274.92 577.69 275.37 573.59 C 275.14 573.39 274.69 572.98 274.46 572.77 C 264.28 573.77 254.13 575.74 243.86 575.32 C 243.45 574.66 242.62 573.35 242.21 572.70 Z" />
<path fill="#010101" d=" M 360.53 575.00 C 361.58 575.16 362.62 575.34 363.68 575.51 C 363.42 580.04 362.14 584.40 361.30 588.83 C 360.27 594.48 359.08 600.16 359.14 605.93 C 359.18 607.48 360.04 608.83 360.62 610.23 C 362.64 606.84 364.59 603.13 368.06 600.99 C 370.77 599.29 375.02 601.72 374.56 605.02 C 374.41 610.53 369.36 614.00 364.99 616.36 C 368.72 621.61 376.21 621.00 381.25 618.15 C 385.67 615.67 387.75 610.82 390.46 606.80 C 390.82 610.37 389.01 613.57 386.99 616.37 C 382.24 621.96 373.79 625.16 366.83 622.03 C 363.86 620.80 362.77 617.59 362.02 614.74 C 365.25 613.29 369.00 612.14 370.94 608.92 C 372.28 607.22 371.75 604.97 371.75 603.00 C 370.10 603.42 368.18 603.51 367.01 604.93 C 363.06 609.10 360.24 614.30 358.59 619.79 C 357.93 621.48 357.63 623.52 356.01 624.61 C 354.91 623.05 354.55 621.18 354.16 619.37 C 350.53 622.37 345.75 624.46 340.98 623.30 C 338.13 622.79 336.35 620.37 334.58 618.34 C 332.09 620.74 328.96 623.86 325.17 622.81 C 322.64 622.29 321.46 619.81 320.08 617.94 C 318.46 620.08 316.98 623.16 313.96 623.38 C 311.33 623.67 310.09 620.94 308.87 619.16 C 305.77 621.71 301.30 623.89 297.51 621.36 C 293.08 617.83 294.39 611.49 294.94 606.61 C 293.37 606.95 291.81 607.34 290.27 607.78 C 289.12 609.60 287.90 611.38 286.63 613.13 C 286.44 609.94 288.04 607.12 288.58 604.06 C 288.91 602.23 289.23 600.40 289.59 598.58 C 290.20 598.53 291.44 598.42 292.06 598.36 C 292.42 600.15 292.59 601.96 292.60 603.79 C 294.40 603.33 296.20 602.85 298.00 602.39 C 298.36 603.00 299.07 604.23 299.43 604.84 C 297.95 609.23 297.45 613.87 298.42 618.44 C 302.48 621.35 308.07 617.89 308.80 613.35 C 309.71 609.56 310.86 605.55 314.01 602.98 C 315.92 600.92 319.04 600.93 321.57 601.61 C 323.83 602.99 323.59 605.84 322.49 607.93 C 324.82 610.39 322.80 613.98 323.38 616.94 C 323.48 619.54 326.64 620.41 328.73 619.62 C 331.47 618.50 333.97 616.14 334.11 613.01 C 334.85 607.84 337.06 601.96 342.44 600.12 C 344.98 598.77 347.50 600.44 349.71 601.60 C 349.63 603.52 349.86 605.50 349.33 607.38 C 348.33 608.88 346.85 609.96 345.56 611.19 C 345.37 608.17 346.31 605.27 346.81 602.33 C 344.24 602.60 340.92 602.97 339.87 605.80 C 339.09 609.21 338.27 612.65 337.90 616.15 C 337.99 619.25 341.06 621.17 343.96 620.89 C 348.05 621.38 351.48 618.86 354.35 616.31 C 355.43 607.12 356.91 598.00 358.28 588.86 C 359.03 584.23 359.77 579.61 360.53 575.00 Z" />
<path fill="#ff7324" d=" M 159.06 593.97 C 161.12 586.29 166.62 580.08 172.66 575.17 C 172.14 581.74 176.90 588.85 183.91 588.82 C 196.16 588.92 208.41 588.85 220.65 588.83 C 220.45 603.33 208.28 614.83 195.21 619.10 C 185.79 622.01 174.65 622.27 166.07 616.84 C 158.68 612.00 157.00 602.03 159.06 593.97 Z" />
<path fill="#ff6f28" d=" M 223.82 588.74 C 240.40 589.03 257.00 588.74 273.59 588.89 C 272.29 600.62 271.92 612.46 272.52 624.24 C 273.80 624.95 275.14 625.56 276.53 626.07 C 274.69 613.71 276.00 601.24 277.13 588.90 L 278.22 588.85 C 277.59 593.82 277.19 598.81 277.11 603.81 C 280.93 604.00 284.75 604.08 288.58 604.06 C 288.04 607.12 286.44 609.94 286.63 613.13 C 287.90 611.38 289.12 609.60 290.27 607.78 C 291.81 607.34 293.37 606.95 294.94 606.61 C 294.39 611.49 293.08 617.83 297.51 621.36 C 301.30 623.89 305.77 621.71 308.87 619.16 C 310.09 620.94 311.33 623.67 313.96 623.38 C 316.98 623.16 318.46 620.08 320.08 617.94 C 321.46 619.81 322.64 622.29 325.17 622.81 C 328.96 623.86 332.09 620.74 334.58 618.34 C 336.35 620.37 338.13 622.79 340.98 623.30 C 345.75 624.46 350.53 622.37 354.16 619.37 C 354.55 621.18 354.91 623.05 356.01 624.61 C 357.63 623.52 357.93 621.48 358.59 619.79 C 360.24 614.30 363.06 609.10 367.01 604.93 C 368.18 603.51 370.10 603.42 371.75 603.00 C 371.75 604.97 372.28 607.22 370.94 608.92 C 369.00 612.14 365.25 613.29 362.02 614.74 C 362.77 617.59 363.86 620.80 366.83 622.03 C 373.79 625.16 382.24 621.96 386.99 616.37 C 391.54 619.11 397.02 617.81 402.03 618.03 C 601.35 618.01 800.68 618.01 1000.00 618.02 L 1000.00 707.96 C 666.67 708.05 333.33 707.90 0.00 708.04 L 0.00 603.98 C 40.99 604.03 81.98 603.99 122.98 603.99 C 133.08 603.92 143.21 604.35 153.31 603.80 C 153.94 601.38 154.60 598.97 155.27 596.57 C 154.95 601.83 155.21 607.38 157.92 612.07 C 161.50 619.21 169.33 623.09 176.99 624.03 C 191.20 626.01 205.94 620.04 215.39 609.39 C 220.25 603.63 224.09 596.46 223.82 588.74 Z" />
<path fill="#010101" d=" M 229.09 617.51 C 231.23 612.98 232.95 608.26 234.99 603.68 C 236.60 602.83 239.00 603.83 238.61 605.87 C 238.82 610.00 236.08 614.61 238.71 618.40 C 239.93 620.34 242.69 620.00 244.61 619.52 C 249.63 617.18 251.25 611.45 254.84 607.66 C 254.88 612.84 251.30 617.26 247.61 620.54 C 244.27 623.58 237.66 623.62 235.63 619.06 C 235.22 616.03 235.15 612.94 234.17 610.02 C 233.13 613.70 232.19 617.68 229.52 620.57 C 228.60 621.73 226.99 621.43 225.71 621.69 C 223.49 617.64 225.01 612.94 224.67 608.58 C 223.67 609.59 222.84 610.75 222.04 611.93 C 221.61 611.81 220.74 611.57 220.31 611.45 C 221.34 609.33 222.50 607.28 223.80 605.32 C 224.45 605.33 225.74 605.36 226.39 605.37 C 228.52 609.21 227.30 613.68 227.27 617.83 C 227.72 617.75 228.64 617.59 229.09 617.51 Z" />
<path fill="#ff7225" d=" M 313.74 607.36 C 314.80 606.10 315.88 604.85 316.96 603.61 C 317.79 603.59 319.46 603.55 320.29 603.53 C 320.73 604.99 321.20 606.44 321.68 607.90 C 319.88 611.74 318.94 615.99 316.36 619.43 C 315.68 619.75 314.33 620.37 313.65 620.68 C 312.20 619.10 311.54 617.08 311.55 614.96 C 313.26 612.78 313.78 610.07 313.74 607.36 Z" />
<path fill="#ff692e" d=" M 0.00 708.04 C 333.33 707.90 666.67 708.05 1000.00 707.96 L 1000.00 798.03 C 666.67 797.90 333.33 798.09 0.00 797.95 L 0.00 708.04 Z" />
<path fill="#ff6433" d=" M 0.00 797.95 C 333.33 798.09 666.67 797.90 1000.00 798.03 L 1000.00 883.05 C 666.67 882.94 333.33 883.03 0.00 882.99 L 0.00 797.95 Z" />
<path fill="#ff6038" d=" M 0.00 882.99 C 333.33 883.03 666.67 882.94 1000.00 883.05 L 1000.00 1000.00 L 0.00 1000.00 L 0.00 882.99 Z" />
</svg>
