<?xml version="1.0" encoding="UTF-8" ?>
<!DOCTYPE svg PUBLIC "-//W3C//DTD SVG 1.1//EN" "http://www.w3.org/Graphics/SVG/1.1/DTD/svg11.dtd">
<svg width="316pt" height="104pt" viewBox="0 0 316 104" version="1.1" xmlns="http://www.w3.org/2000/svg">
<path fill="none" d=" M 0.00 0.00 L 10.08 0.00 C 5.13 1.48 1.51 5.56 0.00 10.41 L 0.00 0.00 Z" />
<path fill="#e3ad67" d=" M 10.08 0.00 L 68.65 0.00 C 71.60 1.27 74.48 3.05 76.26 5.81 C 78.37 8.75 78.47 12.53 78.52 16.00 C 78.49 45.34 78.51 74.67 78.50 104.00 L 51.54 104.00 C 47.66 99.59 43.41 95.53 39.23 91.42 C 34.95 95.55 30.89 99.91 26.56 104.00 L 0.00 104.00 L 0.00 10.41 C 1.51 5.56 5.13 1.48 10.08 0.00 Z" />
<path fill="none" d=" M 68.65 0.00 L 95.25 0.00 C 95.15 34.67 95.43 69.34 95.10 104.00 L 78.50 104.00 C 78.51 74.67 78.49 45.34 78.52 16.00 C 78.47 12.53 78.37 8.75 76.26 5.81 C 74.48 3.05 71.60 1.27 68.65 0.00 Z" />
<path fill="#e3ad67" d=" M 95.25 0.00 L 173.79 0.00 C 173.64 1.67 173.54 3.34 173.48 5.01 C 173.51 25.03 173.51 45.06 173.50 65.08 C 173.67 69.59 171.19 73.96 167.33 76.24 C 164.30 78.27 160.51 78.19 157.02 78.28 C 149.53 78.24 142.05 78.25 134.57 78.23 C 134.43 86.82 134.54 95.41 134.50 104.00 L 95.10 104.00 C 95.43 69.34 95.15 34.67 95.25 0.00 Z" />
<path fill="none" d=" M 173.79 0.00 L 190.50 0.00 C 190.49 30.67 190.50 61.33 190.49 92.00 C 190.56 96.00 190.62 100.01 190.21 104.00 L 134.50 104.00 C 134.54 95.41 134.43 86.82 134.57 78.23 C 142.05 78.25 149.53 78.24 157.02 78.28 C 160.51 78.19 164.30 78.27 167.33 76.24 C 171.19 73.96 173.67 69.59 173.50 65.08 C 173.51 45.06 173.51 25.03 173.48 5.01 C 173.54 3.34 173.64 1.67 173.79 0.00 Z" />
<path fill="#e3ad67" d=" M 190.50 0.00 L 268.89 0.00 C 268.58 19.31 268.83 38.63 268.77 57.94 C 268.67 61.91 269.22 66.05 267.88 69.87 C 265.96 74.65 261.10 78.16 255.90 78.15 C 247.20 78.43 238.50 78.14 229.80 78.25 C 229.70 86.84 229.78 95.42 229.75 104.00 L 190.21 104.00 C 190.62 100.01 190.56 96.00 190.49 92.00 C 190.50 61.33 190.49 30.67 190.50 0.00 Z" />
<path fill="none" d=" M 268.89 0.00 L 316.00 0.00 L 316.00 104.00 L 301.54 104.00 C 306.99 102.63 311.67 97.87 311.82 92.08 C 312.70 84.86 306.35 77.64 299.01 77.93 C 291.50 77.36 284.74 84.52 285.70 91.99 C 285.63 97.50 290.00 101.43 294.36 104.00 L 229.75 104.00 C 229.78 95.42 229.70 86.84 229.80 78.25 C 238.50 78.14 247.20 78.43 255.90 78.15 C 261.10 78.16 265.96 74.65 267.88 69.87 C 269.22 66.05 268.67 61.91 268.77 57.94 C 268.83 38.63 268.58 19.31 268.89 0.00 Z" />
<path fill="#e3ad67" d=" M 285.70 91.99 C 284.74 84.52 291.50 77.36 299.01 77.93 C 306.35 77.64 312.70 84.86 311.82 92.08 C 311.67 97.87 306.99 102.63 301.54 104.00 L 294.36 104.00 C 290.00 101.43 285.63 97.50 285.70 91.99 Z" />
<path fill="none" d=" M 26.56 104.00 C 30.89 99.91 34.95 95.55 39.23 91.42 C 43.41 95.53 47.66 99.59 51.54 104.00 L 26.56 104.00 Z" />
</svg>
