<?xml version="1.0" encoding="UTF-8" ?>
<!DOCTYPE svg PUBLIC "-//W3C//DTD SVG 1.1//EN" "http://www.w3.org/Graphics/SVG/1.1/DTD/svg11.dtd">
<svg preserveAspectRatio="none" viewBox="0 0 640 300" version="1.1" xmlns="http://www.w3.org/2000/svg">
<path fill="#ff8604" d=" M 0.00 0.00 L 640.00 0.00 L 640.00 300.00 L 340.29 300.00 C 342.73 295.52 345.10 290.99 347.59 286.54 C 349.10 284.20 349.20 280.85 347.35 278.69 C 340.73 272.02 332.73 266.96 325.40 261.18 C 325.07 256.11 326.47 251.09 326.57 246.02 C 326.55 241.47 328.77 237.35 329.29 232.90 C 329.63 231.07 328.03 229.13 326.14 229.37 C 323.70 229.31 322.95 232.29 322.05 234.07 C 319.62 241.20 317.88 248.56 316.70 255.99 C 316.05 260.24 314.81 264.40 313.11 268.34 C 311.99 270.81 309.22 271.71 307.05 273.00 C 306.37 270.45 305.66 267.91 305.04 265.35 C 300.92 266.22 297.98 269.66 297.70 273.87 C 297.20 282.93 300.45 291.64 303.56 300.00 L 0.00 300.00 L 0.00 0.00 Z" />
<path fill="#fffffe" d=" M 211.85 37.88 C 218.99 33.99 227.52 34.68 235.27 35.89 C 239.48 36.66 243.75 36.11 247.91 35.30 C 247.21 37.77 246.90 40.94 244.18 42.08 C 239.91 43.97 235.17 42.39 230.79 41.73 C 228.05 54.49 225.28 67.24 222.57 80.00 C 219.59 80.00 216.61 80.00 213.63 80.00 C 216.39 66.75 219.32 53.54 222.10 40.30 C 219.02 40.64 215.47 40.75 213.26 43.26 C 209.83 46.89 210.33 52.29 210.87 56.85 C 208.84 56.26 205.98 56.21 205.15 53.84 C 203.13 47.85 206.30 40.77 211.85 37.88 Z" />
<path fill="#fffffe" d=" M 328.32 39.08 C 331.39 38.66 334.47 38.24 337.55 37.89 C 336.49 42.61 335.54 47.36 334.43 52.07 C 338.05 49.43 344.57 48.07 347.14 52.73 C 349.97 59.71 344.33 66.67 345.31 73.71 C 346.70 74.43 348.32 74.26 349.84 74.41 C 348.78 76.35 348.10 78.87 345.90 79.85 C 342.52 81.57 337.25 80.15 336.73 75.95 C 335.73 69.81 339.11 64.03 339.21 57.94 C 339.23 56.69 338.52 55.17 337.07 55.29 C 334.30 55.94 333.12 58.87 332.55 61.36 C 331.16 67.56 329.93 73.80 328.58 80.01 C 325.60 80.00 322.61 80.00 319.63 80.00 C 320.05 78.01 320.48 76.01 320.94 74.03 C 317.01 78.45 311.12 81.53 305.09 80.29 C 302.20 80.09 300.27 77.83 298.66 75.69 C 295.94 79.00 291.59 81.56 287.22 80.20 C 285.09 79.60 284.32 77.35 283.34 75.63 C 280.47 80.20 272.78 82.90 269.22 77.72 C 266.70 72.44 269.56 66.55 270.34 61.17 C 268.84 61.58 267.34 61.99 265.84 62.39 C 264.96 68.88 262.63 76.19 256.35 79.33 C 251.53 81.74 243.74 80.74 242.01 74.89 C 240.52 68.65 242.38 61.93 245.67 56.56 C 248.83 51.26 255.78 48.03 261.74 50.23 C 265.16 51.83 265.67 55.88 266.01 59.21 C 267.68 58.88 269.33 58.44 270.99 58.06 C 271.56 55.37 272.14 52.69 272.70 50.00 C 275.69 50.00 278.67 50.00 281.66 49.99 C 280.33 57.61 277.86 65.09 277.28 72.80 C 277.78 76.15 281.96 73.60 282.55 71.43 C 285.04 64.53 285.73 57.10 287.54 50.00 C 290.52 50.00 293.51 50.00 296.49 50.00 C 295.03 58.11 292.39 66.06 291.96 74.33 C 294.40 74.66 297.59 73.85 297.98 71.00 C 298.62 65.03 299.89 58.72 304.12 54.18 C 307.58 50.17 313.64 48.28 318.62 50.36 C 321.82 51.81 321.98 56.47 320.05 59.01 C 319.05 60.60 317.07 59.72 315.57 59.77 C 315.90 57.59 316.61 55.37 316.08 53.15 C 313.29 52.44 311.50 55.25 310.34 57.33 C 308.19 61.85 306.65 66.98 307.24 72.02 C 307.52 75.22 311.42 75.72 313.90 74.93 C 317.79 73.74 321.88 70.91 322.49 66.59 C 324.44 57.42 326.41 48.26 328.32 39.08 Z" />
<path fill="#fffffe" d=" M 370.06 50.00 C 373.03 50.00 376.01 50.00 378.99 50.00 C 378.87 50.52 378.63 51.58 378.51 52.11 C 381.27 50.36 384.56 48.71 387.89 49.86 C 389.95 50.31 390.78 52.41 391.82 53.99 C 393.99 51.73 396.58 49.31 399.99 49.69 C 403.20 49.30 406.54 51.63 406.70 54.98 C 407.26 61.56 403.66 67.62 403.96 74.20 C 406.41 74.75 409.62 73.98 409.97 71.06 C 410.77 64.22 412.49 56.70 418.24 52.26 C 421.88 49.58 427.23 48.43 431.33 50.70 C 434.48 53.36 433.49 58.44 431.50 61.54 C 428.83 65.74 423.89 67.46 419.25 68.36 C 419.64 70.53 419.35 73.62 422.00 74.42 C 425.21 74.99 427.92 72.62 430.59 71.22 C 429.52 73.75 428.85 76.75 426.52 78.46 C 421.77 81.91 414.15 81.20 410.91 76.01 C 408.93 77.93 406.88 80.18 403.95 80.44 C 400.62 81.02 396.42 79.56 395.67 75.90 C 394.44 69.48 398.48 63.43 397.91 57.03 C 397.82 55.57 396.00 54.86 394.87 55.69 C 392.31 57.25 391.62 60.37 391.00 63.08 C 389.81 68.72 388.64 74.36 387.43 80.00 C 384.44 80.00 381.46 80.00 378.47 80.01 C 379.98 72.04 382.27 64.20 383.13 56.12 C 382.56 55.82 381.42 55.23 380.85 54.93 C 379.00 56.43 377.27 58.23 376.78 60.65 C 375.23 67.06 374.02 73.55 372.64 80.00 C 369.64 80.00 366.65 80.00 363.66 80.00 C 365.81 70.00 367.86 59.99 370.06 50.00 Z" />
<path fill="#ff8604" d=" M 426.26 53.24 C 428.74 51.87 428.58 55.45 428.26 56.98 C 427.56 61.25 423.84 64.05 419.90 65.16 C 421.17 60.89 422.28 55.81 426.26 53.24 Z" />
<path fill="#ff8604" d=" M 251.07 66.08 C 252.14 61.46 253.49 55.97 257.93 53.47 C 261.27 52.73 260.41 56.31 259.36 58.09 C 258.04 59.84 259.36 61.66 260.29 63.21 C 259.30 67.58 257.91 75.12 252.02 74.42 C 249.90 72.25 250.82 68.78 251.07 66.08 Z" />
<path fill="#fffffe" d=" M 213.59 108.57 C 215.00 108.38 216.40 108.20 217.82 108.02 C 216.38 114.22 215.15 120.46 213.73 126.67 C 213.36 128.57 212.81 130.52 213.14 132.48 C 213.85 132.86 215.26 133.62 215.96 134.00 C 214.73 134.81 213.73 136.34 212.11 136.30 C 210.45 136.03 209.96 134.21 209.07 133.06 C 207.37 134.60 205.50 136.37 203.03 136.28 C 200.85 136.27 199.65 134.30 198.41 132.85 C 196.76 134.55 194.76 137.08 192.07 136.08 C 190.27 135.68 189.52 133.74 189.50 132.08 C 189.54 128.05 191.45 124.24 191.19 120.20 C 190.56 117.22 186.99 119.32 186.20 121.10 C 184.06 125.87 183.78 131.24 182.40 136.25 C 180.79 135.97 179.19 135.64 177.61 135.29 C 176.42 135.67 175.22 136.01 174.00 136.26 C 172.25 136.09 171.64 134.30 170.83 133.04 C 168.98 134.69 166.77 136.82 164.06 136.16 C 160.85 135.53 159.67 131.85 160.03 128.97 C 160.48 123.81 162.86 117.88 168.11 116.02 C 170.15 115.08 172.06 116.33 173.68 117.45 C 173.70 117.09 173.72 116.36 173.73 116.00 C 175.10 116.00 176.47 116.00 177.85 116.00 C 176.73 121.85 174.87 127.61 174.72 133.61 C 176.81 133.01 178.74 131.67 179.49 129.56 C 181.15 125.20 181.62 120.50 182.71 115.98 C 183.74 115.99 185.80 116.02 186.84 116.03 C 186.60 116.69 186.13 118.00 185.90 118.66 C 188.05 116.50 191.47 114.54 194.35 116.67 C 197.70 121.71 192.34 127.65 194.21 132.96 L 195.05 133.43 C 199.33 131.31 198.02 125.79 200.04 122.17 C 201.84 117.77 207.42 113.55 211.87 117.22 C 212.36 114.32 212.98 111.44 213.59 108.57 Z" />
<path fill="#fffffe" d=" M 269.40 108.37 C 271.54 105.48 275.98 109.98 273.08 112.06 C 270.87 114.38 267.17 110.66 269.40 108.37 Z" />
<path fill="#fffffe" d=" M 367.67 108.59 C 369.06 108.40 370.45 108.22 371.84 108.03 C 371.01 111.64 370.33 115.28 369.25 118.83 C 371.44 116.53 375.27 114.26 378.07 116.95 C 381.07 122.42 375.33 128.34 377.75 133.97 C 382.75 131.39 381.27 125.13 383.91 120.98 C 385.70 117.48 389.89 114.57 393.88 116.15 C 396.50 117.30 396.40 120.91 395.20 123.09 C 393.36 126.58 389.19 127.39 385.72 128.30 C 386.10 129.84 386.04 131.65 387.24 132.86 C 389.74 133.94 392.27 132.46 394.64 131.74 C 393.25 133.72 391.74 136.10 389.01 136.16 C 385.99 136.95 383.36 135.06 381.67 132.75 C 380.06 134.61 377.84 137.24 375.07 135.95 C 372.22 134.56 372.75 130.92 373.30 128.37 C 373.79 125.01 376.05 121.08 373.33 118.10 C 371.50 119.23 369.44 120.44 368.83 122.67 C 367.46 127.02 366.85 131.57 365.82 136.00 C 364.45 136.00 363.09 136.00 361.72 135.99 C 361.96 135.33 362.44 133.99 362.68 133.33 C 360.73 134.55 358.68 136.95 356.12 136.10 C 353.91 135.60 353.26 132.98 353.59 131.02 C 354.14 126.80 355.27 122.69 356.14 118.53 C 355.81 118.00 355.48 117.46 355.16 116.93 C 357.06 115.33 357.33 112.83 357.89 110.58 C 359.27 110.39 360.64 110.21 362.03 110.03 C 361.58 111.97 361.12 113.91 360.66 115.85 C 361.59 116.00 363.45 116.31 364.38 116.47 C 363.02 116.94 361.65 117.42 360.29 117.89 C 359.46 123.01 357.21 128.06 357.84 133.29 C 360.96 133.63 362.91 130.55 363.52 127.89 C 365.00 121.48 366.24 115.01 367.67 108.59 Z" />
<path fill="#fffffe" d=" M 423.41 108.35 C 425.60 105.47 429.98 110.06 427.03 112.12 C 424.75 114.33 421.20 110.61 423.41 108.35 Z" />
<path fill="#fffffe" d=" M 451.93 108.59 C 453.30 108.40 454.68 108.20 456.07 108.01 C 455.32 111.54 454.56 115.07 453.62 118.56 C 455.62 117.01 458.12 114.90 460.84 116.03 C 463.66 116.96 463.46 120.55 462.92 122.89 C 462.51 126.53 459.95 130.55 462.45 133.94 C 467.42 129.96 467.25 123.19 468.72 117.55 C 468.31 117.48 467.51 117.33 467.10 117.26 C 469.41 115.77 469.66 113.00 470.30 110.62 C 471.67 110.40 473.04 110.18 474.43 109.96 C 473.97 111.97 473.53 113.99 473.09 116.00 C 473.81 116.00 475.27 116.00 476.00 116.00 L 476.00 117.42 C 474.90 117.47 473.82 117.51 472.73 117.55 C 471.77 122.70 470.10 127.76 470.03 133.04 C 470.81 133.16 472.36 133.41 473.14 133.54 C 471.94 134.62 470.95 136.32 469.14 136.32 C 467.43 135.93 466.80 134.13 465.90 132.85 C 464.15 135.22 460.52 137.93 458.01 134.92 C 455.61 130.49 458.96 125.55 458.99 120.91 C 459.32 119.34 457.57 118.01 456.20 118.99 C 454.16 119.69 453.29 121.93 452.70 123.81 C 451.63 127.93 450.93 132.13 450.02 136.29 C 448.39 135.95 446.69 135.81 445.23 134.95 C 443.89 135.54 442.56 136.14 441.23 136.73 C 440.64 139.20 440.30 141.82 439.01 144.05 C 437.30 147.08 431.44 146.59 430.98 142.87 C 430.94 139.30 434.73 137.82 437.27 136.20 C 437.55 135.17 437.83 134.15 438.13 133.13 C 435.97 134.17 433.63 136.05 431.13 134.95 C 430.05 134.29 429.15 133.41 428.21 132.59 C 426.73 134.10 425.31 136.19 422.96 136.26 C 420.65 136.51 418.95 134.15 419.27 131.98 C 419.87 126.58 421.49 121.35 422.43 116.00 C 423.73 116.00 425.03 116.00 426.35 116.00 C 425.48 121.58 423.31 127.02 423.36 132.71 C 425.09 134.45 427.18 131.70 427.49 129.99 C 428.03 125.10 429.39 119.56 433.94 116.86 C 436.00 115.36 438.59 115.79 440.88 116.43 C 442.46 116.21 444.04 116.01 445.63 115.83 C 444.34 122.36 442.76 128.84 441.57 135.40 C 444.04 134.06 446.55 132.29 447.32 129.41 C 449.17 122.54 450.32 115.51 451.93 108.59 Z" />
<path fill="#fffffe" d=" M 321.08 110.53 C 322.47 110.37 323.86 110.21 325.25 110.04 C 324.80 112.02 324.37 114.00 323.91 115.97 C 324.67 116.00 326.19 116.05 326.95 116.07 L 326.94 117.39 C 325.82 117.45 324.70 117.50 323.58 117.55 C 322.69 122.36 321.20 127.08 320.76 131.97 C 321.51 134.83 324.26 132.58 325.32 131.16 C 326.85 128.33 326.63 124.89 328.02 121.98 C 329.59 118.14 333.68 115.07 337.95 115.84 C 340.51 116.31 340.79 119.29 341.70 121.22 C 343.14 120.40 344.49 119.43 345.99 118.68 C 344.61 120.71 342.92 122.48 341.50 124.46 C 340.31 128.25 339.91 132.96 336.11 135.20 C 332.73 137.49 327.95 135.98 326.35 132.26 C 324.64 134.09 322.77 136.59 319.94 136.25 C 317.48 136.01 316.41 133.26 316.84 131.10 C 317.41 126.59 318.66 122.19 319.54 117.73 C 319.06 117.55 318.11 117.18 317.63 117.00 C 318.21 116.69 319.36 116.07 319.94 115.76 C 320.27 114.00 320.73 112.28 321.08 110.53 Z" />
<path fill="#fffffe" d=" M 232.78 115.59 C 234.15 115.31 235.53 115.03 236.92 114.75 C 237.28 120.06 237.70 125.36 238.14 130.67 C 238.94 130.07 239.75 129.48 240.54 128.87 C 241.44 124.58 242.35 120.29 243.24 116.00 C 244.59 116.00 245.94 116.00 247.30 116.00 C 246.34 121.38 244.56 126.63 244.24 132.09 C 246.03 134.84 249.18 132.05 249.75 129.79 C 251.08 125.27 251.75 120.58 252.83 116.00 C 254.16 116.00 255.50 116.00 256.85 116.00 C 255.97 121.30 254.07 126.48 253.86 131.86 C 254.44 134.56 257.49 132.95 258.56 131.50 C 261.14 128.01 261.69 123.54 262.48 119.40 C 261.77 119.31 260.36 119.13 259.65 119.04 C 259.10 116.65 261.89 113.58 263.70 116.33 C 265.00 120.27 263.55 124.54 262.31 128.33 C 260.96 131.66 258.94 135.75 254.94 136.24 C 252.70 136.61 251.11 134.88 249.64 133.50 C 248.03 134.81 246.32 136.61 244.03 136.22 C 241.45 135.88 240.81 133.06 239.83 131.13 C 237.08 133.08 234.75 136.60 230.98 136.25 C 228.18 136.20 225.71 133.88 225.69 131.04 C 225.99 129.49 227.07 128.29 227.85 126.97 C 230.17 123.50 231.37 119.47 232.78 115.59 Z" />
<path fill="#fffffe" d=" M 277.14 114.46 C 278.51 114.48 279.88 114.51 281.25 114.53 C 280.86 115.93 280.46 117.32 280.05 118.72 C 281.98 117.15 284.22 115.09 286.93 115.89 C 288.86 116.21 289.79 118.25 289.75 120.03 C 289.66 124.09 287.76 127.89 287.78 131.95 C 288.52 135.03 290.89 132.21 291.78 130.74 C 293.24 127.11 293.25 122.88 295.74 119.68 C 297.77 116.60 302.15 114.46 305.60 116.52 C 307.84 118.53 307.16 122.19 305.39 124.28 C 303.26 126.88 299.77 127.45 296.72 128.30 C 297.10 129.85 297.04 131.67 298.26 132.87 C 300.76 133.93 303.28 132.46 305.64 131.74 C 304.26 133.71 302.76 136.08 300.06 136.16 C 296.93 136.97 294.15 135.01 292.55 132.48 C 291.22 133.88 290.10 135.85 288.03 136.20 C 285.99 136.68 283.83 135.01 283.70 132.95 C 283.18 128.54 285.77 124.40 285.37 120.04 C 285.41 117.92 282.55 118.71 281.60 119.59 C 279.70 121.23 279.15 123.81 278.62 126.15 C 277.35 132.41 276.00 138.65 274.70 144.90 C 273.26 145.29 271.83 145.68 270.40 146.07 C 271.25 142.21 271.99 138.34 272.98 134.51 C 271.20 135.27 269.17 137.07 267.20 135.87 C 264.96 134.89 265.11 132.05 265.48 130.05 C 266.36 125.35 267.53 120.70 268.43 116.00 C 269.73 116.00 271.04 116.00 272.35 116.00 C 271.60 121.97 268.57 127.87 269.80 133.95 C 271.29 132.83 273.18 131.82 273.72 129.88 C 275.17 124.82 275.91 119.58 277.14 114.46 Z" />
<path fill="#fffffe" d=" M 408.84 115.99 C 410.23 116.00 411.61 116.01 413.01 116.02 C 412.75 116.77 412.23 118.26 411.97 119.00 C 414.02 117.49 416.13 114.98 419.01 115.90 C 420.68 117.40 419.01 119.23 418.19 120.65 C 417.13 120.07 416.07 119.49 415.03 118.91 C 413.82 119.94 411.94 120.58 411.61 122.32 C 410.44 126.84 409.66 131.45 408.65 136.00 C 407.29 136.00 405.94 136.00 404.59 136.00 C 406.04 129.34 407.45 122.67 408.84 115.99 Z" />
<path fill="#ff8604" d=" M 169.39 118.33 C 170.62 117.72 172.20 117.80 172.88 119.16 C 172.45 122.97 171.73 126.82 170.40 130.43 C 169.54 132.72 165.55 134.80 164.52 131.57 C 163.70 126.91 165.15 120.93 169.39 118.33 Z" />
<path fill="#ff8604" d=" M 205.70 119.80 C 206.97 117.82 209.35 117.98 211.34 118.53 C 210.59 122.33 210.11 126.22 208.88 129.91 C 208.10 131.98 205.58 134.27 203.36 132.76 C 201.33 128.55 203.11 123.38 205.70 119.80 Z" />
<path fill="#ff8604" d=" M 297.09 126.71 C 298.02 122.75 299.52 117.37 304.60 117.52 C 305.33 122.39 301.55 125.85 297.09 126.71 Z" />
<path fill="#ff8604" d=" M 334.82 118.83 C 336.02 117.49 337.90 118.20 339.33 118.76 C 338.14 120.87 337.06 123.30 339.31 125.13 C 338.65 127.64 338.20 130.45 336.26 132.34 C 334.68 134.10 331.10 133.35 330.84 130.86 C 330.44 126.62 331.55 121.78 334.82 118.83 Z" />
<path fill="#ff8604" d=" M 386.09 126.71 C 387.02 122.75 388.51 117.37 393.60 117.52 C 394.33 122.39 390.54 125.85 386.09 126.71 Z" />
<path fill="#ff8604" d=" M 437.29 118.26 C 438.78 117.45 441.13 118.14 440.63 120.15 C 439.71 123.99 439.95 128.88 436.56 131.53 C 434.97 132.97 432.15 132.20 432.07 129.89 C 431.74 125.62 433.16 120.29 437.29 118.26 Z" />
<path fill="#ff8604" d=" M 229.54 130.10 C 230.39 126.42 231.45 122.80 232.82 119.28 C 232.91 123.35 234.35 127.54 233.37 131.56 C 232.12 134.01 229.09 133.36 227.44 131.73 C 227.97 131.32 229.02 130.51 229.54 130.10 Z" />
<path fill="#ff8604" d=" M 432.87 143.97 C 431.22 140.82 435.00 139.03 437.10 137.65 C 436.16 139.78 436.32 144.64 432.87 143.97 Z" />
<path fill="#fffffe" d=" M 388.12 159.02 C 388.83 156.72 390.61 154.59 393.08 154.17 C 396.21 153.49 399.25 154.78 402.14 155.82 C 401.54 158.53 400.94 161.24 400.37 163.96 C 401.12 163.98 402.62 164.01 403.37 164.03 L 403.23 165.49 C 402.44 165.49 400.84 165.50 400.05 165.50 C 399.23 170.58 397.27 175.51 397.33 180.69 C 397.70 180.88 398.45 181.25 398.82 181.43 C 400.93 179.99 402.58 178.00 404.60 176.43 C 403.26 179.81 401.13 184.00 397.00 184.25 C 394.65 184.54 392.96 182.14 393.26 179.95 C 393.65 175.05 395.15 170.31 396.03 165.49 C 394.19 165.49 392.35 165.51 390.52 165.51 C 388.98 172.66 387.53 179.83 386.01 186.99 C 385.40 189.36 384.96 192.26 382.62 193.59 C 380.30 194.62 376.63 193.78 376.22 190.92 C 376.17 187.35 379.95 185.91 382.50 184.34 C 382.88 182.83 383.27 181.31 383.67 179.80 C 380.97 182.09 377.83 184.75 374.02 184.19 C 371.88 184.06 370.57 182.25 369.22 180.85 C 367.59 182.79 365.02 185.42 362.30 183.81 C 359.89 182.46 360.46 179.29 360.84 177.04 C 362.21 170.22 363.82 163.46 365.15 156.64 C 366.55 156.41 367.95 156.19 369.35 155.98 C 368.12 161.80 366.88 167.62 365.57 173.43 C 365.01 176.01 364.31 178.63 364.68 181.29 C 366.45 181.35 368.16 180.33 368.60 178.55 C 369.57 174.74 369.92 170.55 372.47 167.35 C 374.58 164.34 379.09 162.47 382.39 164.71 C 384.32 167.00 383.57 170.56 381.64 172.60 C 379.44 174.95 376.12 175.46 373.19 176.35 C 373.68 177.88 373.43 180.06 375.05 180.94 C 378.48 182.08 382.51 179.96 384.01 176.79 C 385.80 170.97 386.27 164.82 388.12 159.02 Z" />
<path fill="#fffffe" d=" M 322.42 156.59 C 323.80 156.40 325.18 156.21 326.57 156.03 C 325.78 159.61 325.07 163.21 324.06 166.74 C 325.95 165.09 328.25 163.08 330.97 163.90 C 332.56 164.18 333.50 165.67 333.69 167.18 C 334.13 171.97 331.01 176.47 332.10 181.25 C 334.06 181.41 335.65 179.66 336.00 177.85 C 336.88 174.09 337.42 170.01 340.03 166.97 C 342.16 164.30 346.27 162.59 349.40 164.56 C 351.54 166.57 350.91 170.06 349.26 172.17 C 347.12 174.87 343.52 175.42 340.43 176.38 C 340.74 177.76 340.99 179.18 341.53 180.50 C 344.05 182.25 346.93 180.48 349.43 179.66 C 348.01 181.58 346.61 184.03 343.91 184.14 C 340.87 184.97 338.12 183.14 336.43 180.76 C 334.75 182.74 332.24 185.46 329.42 183.74 C 326.27 181.38 328.03 177.01 328.63 173.85 C 328.85 171.47 330.85 168.05 328.05 166.54 C 325.63 166.89 324.02 168.95 323.40 171.19 C 322.18 175.39 321.55 179.74 320.57 184.00 C 319.22 184.00 317.87 184.00 316.52 183.99 C 316.72 183.37 317.10 182.11 317.29 181.48 C 315.37 182.53 313.50 184.90 311.06 184.17 C 308.82 183.71 308.00 181.12 308.33 179.11 C 308.89 174.78 310.07 170.56 310.92 166.29 C 310.70 165.89 310.27 165.10 310.05 164.70 C 311.85 163.16 312.07 160.71 312.64 158.57 C 314.02 158.39 315.41 158.21 316.80 158.05 C 316.34 159.99 315.86 161.92 315.40 163.86 C 316.32 164.01 318.18 164.30 319.11 164.44 C 317.76 164.94 316.41 165.42 315.05 165.87 C 314.14 170.75 312.42 175.55 312.33 180.55 C 314.35 182.72 316.84 179.50 317.67 177.63 C 319.76 170.76 320.75 163.58 322.42 156.59 Z" />
<path fill="#ff8604" d=" M 392.82 157.82 C 393.92 156.13 396.17 156.72 397.85 156.34 C 397.39 158.90 396.86 161.45 396.34 164.01 C 394.46 164.00 392.59 163.99 390.72 163.98 C 391.32 161.90 391.62 159.66 392.82 157.82 Z" />
<path fill="#fffffe" d=" M 275.89 158.58 C 277.27 158.39 278.64 158.20 280.03 158.03 C 279.58 159.97 279.12 161.91 278.66 163.85 C 279.59 164.00 281.45 164.31 282.38 164.47 C 281.02 164.94 279.65 165.42 278.29 165.89 C 277.45 171.00 275.22 176.05 275.83 181.29 C 278.39 181.60 280.58 179.40 280.92 176.97 C 281.66 173.69 282.12 170.14 284.29 167.43 C 286.38 164.67 290.28 162.86 293.67 164.15 C 295.39 165.26 295.64 167.50 296.45 169.23 C 297.85 168.36 299.26 167.51 300.70 166.70 C 299.46 168.72 297.89 170.51 296.17 172.14 C 295.33 176.48 294.35 181.91 289.73 183.78 C 286.38 185.27 282.63 183.47 281.11 180.29 C 279.41 182.01 277.69 184.35 275.00 184.30 C 272.83 184.20 271.38 182.17 271.53 180.10 C 271.87 175.47 273.25 170.99 274.15 166.45 C 273.90 166.08 273.39 165.32 273.14 164.95 C 275.07 163.35 275.33 160.84 275.89 158.58 Z" />
<path fill="#fffffe" d=" M 234.98 169.06 C 236.76 165.53 240.90 162.93 244.90 163.96 C 247.47 164.83 247.48 167.96 248.09 170.14 C 249.22 169.92 250.36 169.70 251.50 169.49 C 251.81 167.66 252.24 165.85 252.55 164.02 C 253.93 164.01 255.32 164.00 256.71 163.99 C 256.49 164.76 256.04 166.31 255.82 167.08 C 257.86 165.26 261.09 161.94 263.66 164.92 C 263.30 166.20 262.83 167.43 262.23 168.61 C 261.11 168.06 260.00 167.51 258.89 166.96 C 257.69 167.89 255.85 168.42 255.43 170.05 C 254.22 174.65 253.44 179.35 252.39 184.00 C 251.04 184.00 249.69 184.00 248.34 184.00 C 249.27 179.71 250.20 175.42 251.08 171.12 C 249.96 171.55 248.84 171.99 247.73 172.42 C 247.14 176.41 246.23 181.11 242.43 183.31 C 239.20 185.37 233.80 184.08 233.03 179.97 C 232.29 176.28 233.34 172.39 234.98 169.06 Z" />
<path fill="#ff8604" d=" M 237.23 178.04 C 237.15 173.13 238.91 166.03 244.88 165.74 C 245.17 166.36 245.74 167.61 246.03 168.24 C 245.49 168.65 244.43 169.46 243.89 169.87 C 244.47 170.91 245.12 171.91 245.83 172.88 C 245.15 175.80 244.58 179.12 241.99 181.01 C 239.79 181.95 237.06 180.60 237.23 178.04 Z" />
<path fill="#ff8604" d=" M 289.73 166.69 C 291.02 165.49 292.74 166.40 294.22 166.59 C 293.19 168.66 291.65 171.17 294.05 172.99 C 293.46 175.49 293.03 178.23 291.18 180.16 C 289.70 182.10 285.95 181.47 285.58 178.91 C 285.18 174.58 286.33 169.63 289.73 166.69 Z" />
<path fill="#ff8604" d=" M 340.81 174.69 C 341.77 170.75 343.30 165.32 348.38 165.53 C 349.07 170.43 345.28 173.84 340.81 174.69 Z" />
<path fill="#ff8604" d=" M 373.54 174.69 C 374.53 170.75 376.07 165.21 381.23 165.58 C 380.85 167.59 381.01 169.95 379.54 171.56 C 377.99 173.30 375.60 173.84 373.54 174.69 Z" />
<path fill="#ff8604" d=" M 378.17 191.74 C 376.55 188.85 380.49 187.15 382.35 185.74 C 381.46 187.80 381.54 192.97 378.17 191.74 Z" />
<path fill="#fffffe" d=" M 322.05 234.07 C 322.95 232.29 323.70 229.31 326.14 229.37 C 328.03 229.13 329.63 231.07 329.29 232.90 C 328.77 237.35 326.55 241.47 326.57 246.02 C 326.47 251.09 325.07 256.11 325.40 261.18 C 332.73 266.96 340.73 272.02 347.35 278.69 C 349.20 280.85 349.10 284.20 347.59 286.54 C 345.10 290.99 342.73 295.52 340.29 300.00 L 303.56 300.00 C 300.45 291.64 297.20 282.93 297.70 273.87 C 297.98 269.66 300.92 266.22 305.04 265.35 C 305.66 267.91 306.37 270.45 307.05 273.00 C 309.22 271.71 311.99 270.81 313.11 268.34 C 314.81 264.40 316.05 260.24 316.70 255.99 C 317.88 248.56 319.62 241.20 322.05 234.07 Z" />
</svg>
